<?xml version="1.0" ?>
<!-- Uploaded to: SVG Repo, www.svgrepo.com, Generator: SVG Repo Mixer Tools -->
<svg fill="#000000" width="800px" height="800px" viewBox="0 0 32 32" xmlns="http://www.w3.org/2000/svg">
<title/>
<g data-name="Layer 44" id="Layer_44">
<path d="M25,30H7a5,5,0,0,1-5-5V7A5,5,0,0,1,7,2H25a5,5,0,0,1,5,5V25A5,5,0,0,1,25,30ZM7,4A3,3,0,0,0,4,7V25a3,3,0,0,0,3,3H25a3,3,0,0,0,3-3V7a3,3,0,0,0-3-3Z"/>
<path d="M8,30a1,1,0,0,1-1-1V3A1,1,0,0,1,9,3V29A1,1,0,0,1,8,30Z"/>
<path d="M24,30a1,1,0,0,1-1-1V3a1,1,0,0,1,2,0V29A1,1,0,0,1,24,30Z"/>
<path d="M8,8H3A1,1,0,0,1,3,6H8A1,1,0,0,1,8,8Z"/>
<path d="M8,17H3a1,1,0,0,1,0-2H8a1,1,0,0,1,0,2Z"/>
<path d="M8,26H3a1,1,0,0,1,0-2H8a1,1,0,0,1,0,2Z"/>
<path d="M29,8H24a1,1,0,0,1,0-2h5a1,1,0,0,1,0,2Z"/>
<path d="M29,17H24a1,1,0,0,1,0-2h5a1,1,0,0,1,0,2Z"/>
<path d="M29,26H24a1,1,0,0,1,0-2h5a1,1,0,0,1,0,2Z"/>
<path d="M11.52,21.87A.94.94,0,0,1,11,21V11a1,1,0,0,1,1.53-.85l8,5a1,1,0,0,1,0,1.7l-8,5A1,1,0,0,1,11.52,21.87Z"/>
<path d="M4,15.31c.35,6.34,8.42,9.29,13.93,9.29s9.61-.13,10.07-5.77l.56,9.67H3.44Z"/>
</g>
</svg>